<mxfile host="app.diagrams.net" modified="2021-07-14T21:14:39.898Z" agent="5.0 (Macintosh; Intel Mac OS X 10_15_7) AppleWebKit/537.36 (KHTML, like Gecko) Chrome/91.0.4472.114 Safari/537.36" etag="qC9RQbJ8f5sS-6Pm_thV" version="14.8.6" type="github">
  <diagram name="Page-1" id="e3a06f82-3646-2815-327d-82caf3d4e204">
    <mxGraphModel dx="1902" dy="1108" grid="1" gridSize="10" guides="1" tooltips="1" connect="1" arrows="1" fold="1" page="1" pageScale="1.5" pageWidth="1169" pageHeight="826" background="none" math="0" shadow="0">
      <root>
        <mxCell id="0" style=";html=1;" />
        <mxCell id="1" style=";html=1;" parent="0" />
        <mxCell id="6a7d8f32e03d9370-62" value="Document Share System" style="text;strokeColor=none;fillColor=none;html=1;fontSize=24;fontStyle=1;verticalAlign=middle;align=center;" parent="1" vertex="1">
          <mxGeometry x="499" y="30" width="861" height="40" as="geometry" />
        </mxCell>
        <mxCell id="F9yd2dMqK8Vk7KA25jul-26" style="edgeStyle=orthogonalEdgeStyle;rounded=0;orthogonalLoop=1;jettySize=auto;html=1;" edge="1" parent="1" source="F9yd2dMqK8Vk7KA25jul-1" target="F9yd2dMqK8Vk7KA25jul-2">
          <mxGeometry relative="1" as="geometry" />
        </mxCell>
        <mxCell id="F9yd2dMqK8Vk7KA25jul-1" value="OLB Portal" style="verticalLabelPosition=bottom;aspect=fixed;html=1;verticalAlign=top;strokeColor=none;align=center;outlineConnect=0;shape=mxgraph.citrix.globe;" vertex="1" parent="1">
          <mxGeometry x="180" y="172" width="78.5" height="75" as="geometry" />
        </mxCell>
        <mxCell id="F9yd2dMqK8Vk7KA25jul-24" style="edgeStyle=orthogonalEdgeStyle;rounded=0;orthogonalLoop=1;jettySize=auto;html=1;" edge="1" parent="1" source="F9yd2dMqK8Vk7KA25jul-2" target="F9yd2dMqK8Vk7KA25jul-3">
          <mxGeometry relative="1" as="geometry" />
        </mxCell>
        <mxCell id="F9yd2dMqK8Vk7KA25jul-25" style="edgeStyle=orthogonalEdgeStyle;rounded=0;orthogonalLoop=1;jettySize=auto;html=1;entryX=0;entryY=0.5;entryDx=0;entryDy=0;" edge="1" parent="1" source="F9yd2dMqK8Vk7KA25jul-2" target="F9yd2dMqK8Vk7KA25jul-4">
          <mxGeometry relative="1" as="geometry">
            <mxPoint x="640" y="283" as="targetPoint" />
            <Array as="points">
              <mxPoint x="560" y="209" />
              <mxPoint x="560" y="305" />
            </Array>
          </mxGeometry>
        </mxCell>
        <mxCell id="F9yd2dMqK8Vk7KA25jul-2" value="External Load Balancer" style="outlineConnect=0;dashed=0;verticalLabelPosition=bottom;verticalAlign=top;align=center;html=1;shape=mxgraph.aws3.classic_load_balancer;fillColor=#F58534;gradientColor=none;" vertex="1" parent="1">
          <mxGeometry x="400" y="173" width="69" height="72" as="geometry" />
        </mxCell>
        <mxCell id="F9yd2dMqK8Vk7KA25jul-22" style="edgeStyle=orthogonalEdgeStyle;rounded=0;orthogonalLoop=1;jettySize=auto;html=1;" edge="1" parent="1" source="F9yd2dMqK8Vk7KA25jul-3" target="F9yd2dMqK8Vk7KA25jul-5">
          <mxGeometry relative="1" as="geometry" />
        </mxCell>
        <mxCell id="F9yd2dMqK8Vk7KA25jul-3" value="External Nginx Server" style="aspect=fixed;perimeter=ellipsePerimeter;html=1;align=center;shadow=0;dashed=0;spacingTop=3;image;image=img/lib/active_directory/web_server.svg;" vertex="1" parent="1">
          <mxGeometry x="650" y="123" width="40" height="50" as="geometry" />
        </mxCell>
        <mxCell id="F9yd2dMqK8Vk7KA25jul-23" style="edgeStyle=orthogonalEdgeStyle;rounded=0;orthogonalLoop=1;jettySize=auto;html=1;" edge="1" parent="1" source="F9yd2dMqK8Vk7KA25jul-4" target="F9yd2dMqK8Vk7KA25jul-5">
          <mxGeometry relative="1" as="geometry" />
        </mxCell>
        <mxCell id="F9yd2dMqK8Vk7KA25jul-4" value="External Nginx Server" style="aspect=fixed;perimeter=ellipsePerimeter;html=1;align=center;shadow=0;dashed=0;spacingTop=3;image;image=img/lib/active_directory/web_server.svg;" vertex="1" parent="1">
          <mxGeometry x="650" y="280" width="40" height="50" as="geometry" />
        </mxCell>
        <mxCell id="F9yd2dMqK8Vk7KA25jul-16" style="edgeStyle=orthogonalEdgeStyle;rounded=0;orthogonalLoop=1;jettySize=auto;html=1;" edge="1" parent="1" source="F9yd2dMqK8Vk7KA25jul-5" target="F9yd2dMqK8Vk7KA25jul-6">
          <mxGeometry relative="1" as="geometry" />
        </mxCell>
        <mxCell id="F9yd2dMqK8Vk7KA25jul-5" value="IBM DataPower" style="outlineConnect=0;fontColor=#232F3E;gradientColor=none;fillColor=#5A30B5;strokeColor=none;dashed=0;verticalLabelPosition=bottom;verticalAlign=top;align=center;html=1;fontSize=12;fontStyle=0;aspect=fixed;pointerEvents=1;shape=mxgraph.aws4.gateway_load_balancer;" vertex="1" parent="1">
          <mxGeometry x="838" y="190" width="78" height="78" as="geometry" />
        </mxCell>
        <mxCell id="F9yd2dMqK8Vk7KA25jul-12" style="edgeStyle=orthogonalEdgeStyle;rounded=0;orthogonalLoop=1;jettySize=auto;html=1;" edge="1" parent="1" source="F9yd2dMqK8Vk7KA25jul-6" target="F9yd2dMqK8Vk7KA25jul-7">
          <mxGeometry relative="1" as="geometry">
            <Array as="points">
              <mxPoint x="1070" y="150" />
            </Array>
          </mxGeometry>
        </mxCell>
        <mxCell id="F9yd2dMqK8Vk7KA25jul-13" style="edgeStyle=orthogonalEdgeStyle;rounded=0;orthogonalLoop=1;jettySize=auto;html=1;" edge="1" parent="1" source="F9yd2dMqK8Vk7KA25jul-6" target="F9yd2dMqK8Vk7KA25jul-8">
          <mxGeometry relative="1" as="geometry">
            <Array as="points">
              <mxPoint x="1070" y="338" />
            </Array>
          </mxGeometry>
        </mxCell>
        <mxCell id="F9yd2dMqK8Vk7KA25jul-6" value="Internal Load Balancer" style="outlineConnect=0;dashed=0;verticalLabelPosition=bottom;verticalAlign=top;align=center;html=1;shape=mxgraph.aws3.classic_load_balancer;fillColor=#F58534;gradientColor=none;" vertex="1" parent="1">
          <mxGeometry x="1035" y="193" width="69" height="72" as="geometry" />
        </mxCell>
        <mxCell id="F9yd2dMqK8Vk7KA25jul-14" style="edgeStyle=orthogonalEdgeStyle;rounded=0;orthogonalLoop=1;jettySize=auto;html=1;fillColor=#f8cecc;strokeColor=#b85450;" edge="1" parent="1" source="F9yd2dMqK8Vk7KA25jul-7" target="F9yd2dMqK8Vk7KA25jul-9">
          <mxGeometry relative="1" as="geometry" />
        </mxCell>
        <mxCell id="F9yd2dMqK8Vk7KA25jul-18" style="edgeStyle=orthogonalEdgeStyle;rounded=0;orthogonalLoop=1;jettySize=auto;html=1;fillColor=#d5e8d4;strokeColor=#82b366;" edge="1" parent="1" source="F9yd2dMqK8Vk7KA25jul-7" target="F9yd2dMqK8Vk7KA25jul-10">
          <mxGeometry relative="1" as="geometry">
            <Array as="points">
              <mxPoint x="1258" y="220" />
              <mxPoint x="1515" y="220" />
            </Array>
          </mxGeometry>
        </mxCell>
        <mxCell id="F9yd2dMqK8Vk7KA25jul-21" style="edgeStyle=orthogonalEdgeStyle;rounded=0;orthogonalLoop=1;jettySize=auto;html=1;fillColor=#dae8fc;strokeColor=#6c8ebf;" edge="1" parent="1" source="F9yd2dMqK8Vk7KA25jul-7" target="F9yd2dMqK8Vk7KA25jul-11">
          <mxGeometry relative="1" as="geometry">
            <Array as="points">
              <mxPoint x="1258" y="70" />
              <mxPoint x="1635" y="70" />
              <mxPoint x="1635" y="460" />
            </Array>
          </mxGeometry>
        </mxCell>
        <mxCell id="F9yd2dMqK8Vk7KA25jul-7" value="DocShare Microservice" style="pointerEvents=1;shadow=0;dashed=0;html=1;strokeColor=none;fillColor=#505050;labelPosition=center;verticalLabelPosition=bottom;verticalAlign=top;outlineConnect=0;align=center;shape=mxgraph.office.servers.application_server_green;" vertex="1" parent="1">
          <mxGeometry x="1235" y="130" width="46" height="56" as="geometry" />
        </mxCell>
        <mxCell id="F9yd2dMqK8Vk7KA25jul-15" style="edgeStyle=orthogonalEdgeStyle;rounded=0;orthogonalLoop=1;jettySize=auto;html=1;fillColor=#f8cecc;strokeColor=#b85450;" edge="1" parent="1" source="F9yd2dMqK8Vk7KA25jul-8" target="F9yd2dMqK8Vk7KA25jul-9">
          <mxGeometry relative="1" as="geometry">
            <Array as="points">
              <mxPoint x="1335" y="338" />
              <mxPoint x="1335" y="158" />
            </Array>
          </mxGeometry>
        </mxCell>
        <mxCell id="F9yd2dMqK8Vk7KA25jul-19" style="edgeStyle=orthogonalEdgeStyle;rounded=0;orthogonalLoop=1;jettySize=auto;html=1;fillColor=#d5e8d4;strokeColor=#82b366;" edge="1" parent="1" source="F9yd2dMqK8Vk7KA25jul-8" target="F9yd2dMqK8Vk7KA25jul-10">
          <mxGeometry relative="1" as="geometry">
            <Array as="points">
              <mxPoint x="1415" y="366" />
              <mxPoint x="1415" y="220" />
              <mxPoint x="1515" y="220" />
            </Array>
          </mxGeometry>
        </mxCell>
        <mxCell id="F9yd2dMqK8Vk7KA25jul-20" style="edgeStyle=orthogonalEdgeStyle;rounded=0;orthogonalLoop=1;jettySize=auto;html=1;fillColor=#dae8fc;strokeColor=#6c8ebf;" edge="1" parent="1" source="F9yd2dMqK8Vk7KA25jul-8" target="F9yd2dMqK8Vk7KA25jul-11">
          <mxGeometry relative="1" as="geometry">
            <Array as="points">
              <mxPoint x="1258" y="452" />
            </Array>
          </mxGeometry>
        </mxCell>
        <mxCell id="F9yd2dMqK8Vk7KA25jul-8" value="DocShare Microservice" style="pointerEvents=1;shadow=0;dashed=0;html=1;strokeColor=none;fillColor=#505050;labelPosition=center;verticalLabelPosition=bottom;verticalAlign=top;outlineConnect=0;align=center;shape=mxgraph.office.servers.application_server_green;" vertex="1" parent="1">
          <mxGeometry x="1235" y="310" width="46" height="56" as="geometry" />
        </mxCell>
        <mxCell id="F9yd2dMqK8Vk7KA25jul-9" value="Box API" style="html=1;strokeColor=none;fillColor=#0079D6;labelPosition=center;verticalLabelPosition=middle;verticalAlign=top;align=center;fontSize=12;outlineConnect=0;spacingTop=-6;fontColor=#FFFFFF;shape=mxgraph.sitemap.cloud;" vertex="1" parent="1">
          <mxGeometry x="1475" y="123" width="120" height="70" as="geometry" />
        </mxCell>
        <mxCell id="F9yd2dMqK8Vk7KA25jul-10" value="AFCU DB" style="verticalLabelPosition=bottom;html=1;verticalAlign=top;strokeWidth=1;align=center;outlineConnect=0;dashed=0;outlineConnect=0;shape=mxgraph.aws3d.oracleDataCenter;fillColor=#ffffff;strokeColor=#5E5E5E;aspect=fixed;" vertex="1" parent="1">
          <mxGeometry x="1474" y="245" width="82.29" height="95" as="geometry" />
        </mxCell>
        <mxCell id="F9yd2dMqK8Vk7KA25jul-11" value="Exchange Server" style="shadow=0;dashed=0;html=1;strokeColor=none;fillColor=#EF8F21;labelPosition=center;verticalLabelPosition=bottom;verticalAlign=top;align=center;outlineConnect=0;shape=mxgraph.veeam.ms_exchange;" vertex="1" parent="1">
          <mxGeometry x="1495" y="430" width="44.8" height="44.8" as="geometry" />
        </mxCell>
        <mxCell id="F9yd2dMqK8Vk7KA25jul-29" style="edgeStyle=orthogonalEdgeStyle;rounded=0;orthogonalLoop=1;jettySize=auto;html=1;" edge="1" parent="1" source="F9yd2dMqK8Vk7KA25jul-27" target="F9yd2dMqK8Vk7KA25jul-28">
          <mxGeometry relative="1" as="geometry" />
        </mxCell>
        <mxCell id="F9yd2dMqK8Vk7KA25jul-27" value="Employee Portal" style="verticalLabelPosition=bottom;aspect=fixed;html=1;verticalAlign=top;strokeColor=none;align=center;outlineConnect=0;shape=mxgraph.citrix.globe;" vertex="1" parent="1">
          <mxGeometry x="200" y="510" width="59" height="56.37" as="geometry" />
        </mxCell>
        <mxCell id="F9yd2dMqK8Vk7KA25jul-33" style="edgeStyle=orthogonalEdgeStyle;rounded=0;orthogonalLoop=1;jettySize=auto;html=1;entryX=0;entryY=0.5;entryDx=0;entryDy=0;" edge="1" parent="1" source="F9yd2dMqK8Vk7KA25jul-28" target="F9yd2dMqK8Vk7KA25jul-30">
          <mxGeometry relative="1" as="geometry">
            <Array as="points">
              <mxPoint x="570" y="539" />
              <mxPoint x="570" y="445" />
            </Array>
          </mxGeometry>
        </mxCell>
        <mxCell id="F9yd2dMqK8Vk7KA25jul-34" style="edgeStyle=orthogonalEdgeStyle;rounded=0;orthogonalLoop=1;jettySize=auto;html=1;entryX=0;entryY=0.75;entryDx=0;entryDy=0;" edge="1" parent="1" source="F9yd2dMqK8Vk7KA25jul-28" target="F9yd2dMqK8Vk7KA25jul-31">
          <mxGeometry relative="1" as="geometry">
            <Array as="points">
              <mxPoint x="570" y="539" />
              <mxPoint x="570" y="626" />
            </Array>
          </mxGeometry>
        </mxCell>
        <mxCell id="F9yd2dMqK8Vk7KA25jul-28" value="Internal Load Balancer" style="outlineConnect=0;dashed=0;verticalLabelPosition=bottom;verticalAlign=top;align=center;html=1;shape=mxgraph.aws3.classic_load_balancer;fillColor=#F58534;gradientColor=none;" vertex="1" parent="1">
          <mxGeometry x="409" y="503" width="69" height="72" as="geometry" />
        </mxCell>
        <mxCell id="F9yd2dMqK8Vk7KA25jul-35" style="edgeStyle=orthogonalEdgeStyle;rounded=0;orthogonalLoop=1;jettySize=auto;html=1;entryX=0;entryY=0.5;entryDx=0;entryDy=0;entryPerimeter=0;" edge="1" parent="1" source="F9yd2dMqK8Vk7KA25jul-30" target="F9yd2dMqK8Vk7KA25jul-6">
          <mxGeometry relative="1" as="geometry">
            <Array as="points">
              <mxPoint x="950" y="445" />
              <mxPoint x="950" y="229" />
            </Array>
          </mxGeometry>
        </mxCell>
        <mxCell id="F9yd2dMqK8Vk7KA25jul-30" value="Internal Nginx Server" style="aspect=fixed;perimeter=ellipsePerimeter;html=1;align=center;shadow=0;dashed=0;spacingTop=3;image;image=img/lib/active_directory/web_server.svg;" vertex="1" parent="1">
          <mxGeometry x="639" y="420" width="40" height="50" as="geometry" />
        </mxCell>
        <mxCell id="F9yd2dMqK8Vk7KA25jul-36" style="edgeStyle=orthogonalEdgeStyle;rounded=0;orthogonalLoop=1;jettySize=auto;html=1;entryX=0;entryY=0.5;entryDx=0;entryDy=0;entryPerimeter=0;" edge="1" parent="1" source="F9yd2dMqK8Vk7KA25jul-31" target="F9yd2dMqK8Vk7KA25jul-6">
          <mxGeometry relative="1" as="geometry">
            <Array as="points">
              <mxPoint x="950" y="615" />
              <mxPoint x="950" y="229" />
            </Array>
          </mxGeometry>
        </mxCell>
        <mxCell id="F9yd2dMqK8Vk7KA25jul-31" value="Internal Nginx Server" style="aspect=fixed;perimeter=ellipsePerimeter;html=1;align=center;shadow=0;dashed=0;spacingTop=3;image;image=img/lib/active_directory/web_server.svg;" vertex="1" parent="1">
          <mxGeometry x="639" y="590" width="40" height="50" as="geometry" />
        </mxCell>
      </root>
    </mxGraphModel>
  </diagram>
</mxfile>
